<?xml version="1.0" standalone="no"?>
<!DOCTYPE svg PUBLIC "-//W3C//DTD SVG 20010904//EN"
 "http://www.w3.org/TR/2001/REC-SVG-20010904/DTD/svg10.dtd">
<svg version="1.0" xmlns="http://www.w3.org/2000/svg"
 width="960pt" height="543pt" viewBox="0 0 960 543"
 preserveAspectRatio="xMidYMid meet">
<metadata>
Created by potrace 1.7, written by Peter Selinger 2001-2005
</metadata>
<g transform="translate(0,543) scale(0.040000,-0.040000)"
fill="#000000" stroke="none">
<path d="M7610 13080 c-256 -10 -628 -48 -965 -99 -71 -11 -188 -29 -260 -40
-277 -42 -1123 -219 -1415 -296 -302 -80 -727 -213 -925 -290 -38 -15 -117
-45 -175 -68 -58 -22 -133 -53 -168 -69 -34 -15 -65 -28 -67 -28 -18 0 -381
-176 -540 -262 -764 -412 -1438 -943 -2558 -2017 -330 -317 -359 -354 -379
-477 -24 -155 54 -293 210 -373 43 -22 133 -31 198 -20 103 18 158 61 496 385
708 681 1275 1167 1713 1470 712 493 1445 818 2405 1068 264 68 1069 235 1325
275 429 66 644 93 950 121 145 13 907 13 1054 -1 453 -41 535 -51 891 -110
317 -52 398 -67 640 -119 80 -17 179 -38 220 -46 114 -24 571 -131 695 -164
814 -214 1401 -406 2019 -660 470 -193 1067 -481 1486 -717 69 -39 231 -130
360 -203 129 -73 343 -198 475 -278 132 -79 296 -178 365 -219 69 -42 154 -93
190 -116 36 -22 93 -58 128 -79 34 -21 92 -57 130 -80 37 -23 94 -58 127 -78
101 -62 186 -115 270 -167 117 -74 155 -91 236 -108 66 -13 448 -15 3405 -15
1899 0 3343 4 3360 9 16 5 49 15 74 22 114 33 210 149 230 276 23 139 -46 285
-164 353 -113 64 128 60 -3471 60 l-3280 0 -95 58 c-52 32 -214 132 -360 222
-1443 889 -2311 1356 -3180 1712 -405 166 -943 360 -1255 452 -27 8 -126 37
-220 66 -157 47 -302 87 -560 155 -186 49 -240 63 -330 83 -49 12 -139 33
-200 47 -248 58 -320 74 -473 105 -53 10 -151 30 -217 44 -200 43 -818 142
-1015 164 -500 56 -870 70 -1380 52z"/>
<path d="M7535 11643 c-358 -17 -635 -47 -865 -94 -138 -28 -679 -184 -1010
-291 -219 -71 -629 -220 -800 -290 -362 -150 -432 -180 -545 -233 -215 -102
-459 -223 -525 -260 -36 -20 -93 -52 -127 -71 -35 -19 -93 -51 -130 -71 -37
-20 -147 -86 -243 -147 -96 -60 -204 -127 -240 -149 -61 -38 -106 -69 -225
-157 -27 -20 -108 -79 -180 -131 -163 -117 -554 -442 -700 -580 -285 -270
-366 -350 -579 -579 -178 -191 -235 -259 -261 -310 -63 -127 -50 -271 34 -377
48 -61 397 -354 641 -539 400 -303 769 -534 1173 -732 l258 -127 -6 -44 c-3
-24 -5 -191 -5 -370 0 -179 -4 -332 -8 -339 -7 -10 -64 -10 -278 -2 -911 32
-1017 34 -1092 16 -86 -22 -170 -85 -218 -164 -38 -64 -62 -181 -45 -225 6
-16 11 -39 11 -52 0 -39 65 -140 190 -295 64 -80 155 -201 202 -270 131 -192
437 -708 528 -890 213 -425 399 -980 485 -1445 55 -296 146 -987 206 -1570 19
-190 43 -250 138 -349 231 -240 603 -192 761 99 63 114 60 -30 60 2738 0 2124
2 2528 14 2533 15 6 255 -146 866 -551 239 -158 500 -329 580 -379 236 -150
531 -331 595 -366 33 -18 125 -70 205 -115 80 -45 219 -124 310 -175 91 -51
230 -130 310 -175 80 -45 172 -97 205 -115 33 -18 105 -59 160 -90 55 -31 127
-72 160 -90 33 -18 128 -71 210 -118 420 -238 432 -244 610 -337 72 -38 135
-72 141 -76 18 -14 641 -323 764 -379 482 -219 984 -452 1083 -501 221 -111
574 -257 932 -384 1058 -377 1140 -403 1770 -561 165 -42 415 -106 555 -144
140 -37 361 -91 490 -119 129 -29 255 -56 280 -62 77 -18 116 -26 468 -104
447 -98 889 -186 1182 -236 129 -22 314 -53 410 -70 468 -79 705 -107 1320
-153 314 -23 393 -25 1265 -30 512 -2 1007 0 1100 4 1549 77 2851 845 3416
2015 190 394 292 852 276 1240 -23 536 -182 1000 -497 1442 -286 403 -673 725
-1167 971 -828 413 -1823 512 -2693 267 -542 -153 -982 -404 -1340 -764 -346
-349 -553 -727 -646 -1176 -22 -108 -27 -165 -32 -338 -4 -207 -1 -258 34
-432 24 -122 70 -270 120 -382 58 -130 57 -127 119 -232 367 -613 1043 -1027
1858 -1137 149 -20 509 -23 647 -5 547 71 1016 284 1338 610 296 299 452 630
482 1018 28 365 -109 740 -374 1022 -83 88 -243 211 -355 274 -147 82 -152 84
-391 167 -14 5 -52 14 -85 20 -33 6 -80 16 -103 21 -82 18 -361 30 -452 19
-334 -40 -585 -151 -793 -349 -173 -165 -259 -332 -298 -578 -16 -107 1 -261
41 -358 70 -171 149 -272 285 -363 138 -92 248 -125 425 -125 180 -1 272 23
400 101 116 71 184 171 212 307 22 110 -20 263 -98 363 -78 98 -220 149 -340
123 -74 -16 -89 -23 -154 -73 -28 -21 -54 -37 -57 -35 -10 11 41 91 84 132
163 157 510 192 813 83 208 -75 386 -224 468 -391 108 -220 75 -487 -89 -729
-54 -79 -184 -209 -269 -270 -142 -101 -357 -196 -538 -239 -156 -37 -261 -49
-452 -49 -262 1 -433 28 -668 106 -410 137 -726 374 -922 694 -28 45 -50 83
-50 85 0 3 -13 33 -29 67 -120 264 -133 607 -36 903 141 426 490 805 955 1036
311 154 625 245 971 279 138 14 479 14 600 1 679 -75 1259 -320 1700 -717 284
-257 509 -618 599 -959 40 -151 48 -207 60 -380 31 -452 -136 -961 -448 -1365
-501 -649 -1303 -1067 -2275 -1186 -192 -23 -656 -30 -1562 -22 -580 5 -842
11 -985 22 -107 9 -252 20 -321 26 -246 18 -667 72 -944 120 -60 11 -229 39
-375 64 -285 49 -840 159 -1140 226 -102 23 -367 81 -590 130 -223 49 -531
122 -685 163 -154 41 -372 98 -485 125 -545 133 -714 185 -1490 460 -636 225
-866 317 -1200 481 -159 78 -228 111 -375 176 -27 13 -81 37 -120 55 -38 18
-95 44 -125 58 -30 13 -97 44 -148 68 -52 24 -95 44 -97 44 -2 0 -45 20 -97
44 -51 24 -115 54 -143 66 -76 35 -591 292 -665 332 -36 19 -100 54 -142 77
-201 106 -234 124 -243 131 -5 4 -35 21 -65 37 -81 44 -143 79 -255 143 -55
31 -127 72 -160 90 -33 18 -127 71 -210 118 -383 217 -444 251 -500 282 -33
18 -121 67 -195 110 -74 42 -234 132 -355 200 -394 221 -1295 794 -1277 812 5
5 80 0 173 -11 173 -21 900 -83 1179 -101 91 -6 235 -15 320 -20 1004 -64
1056 -64 1900 10 1084 94 1976 209 2855 366 171 30 339 61 375 69 36 8 155 33
265 55 903 186 1790 436 3030 856 220 75 627 212 905 305 l505 169 3287 0
3287 0 64 23 c170 62 267 236 227 409 -25 109 -119 213 -235 258 -36 13 -398
16 -3385 20 l-3345 5 -380 236 c-209 129 -504 309 -655 399 -151 89 -318 189
-370 220 -134 81 -390 230 -394 230 -2 0 -75 41 -161 90 -86 50 -158 90 -160
90 -1 0 -38 19 -81 43 -44 24 -115 63 -159 87 -121 65 -648 330 -750 377 -184
85 -241 111 -295 136 -30 14 -93 41 -140 60 -91 37 -208 86 -385 161 -981 416
-2449 869 -3405 1052 -606 115 -814 135 -1436 132 -258 -1 -496 -3 -529 -5z
m1336 -743 c85 -11 201 -29 259 -40 58 -10 179 -33 270 -50 91 -17 206 -40
255 -51 244 -56 479 -115 660 -166 201 -55 233 -65 425 -123 339 -102 426
-129 710 -222 259 -85 323 -107 513 -179 179 -68 245 -92 297 -111 30 -11 63
-24 72 -29 10 -5 22 -9 28 -9 5 0 33 -11 62 -24 30 -14 78 -34 107 -46 30 -11
73 -29 95 -40 23 -10 77 -33 121 -50 44 -17 98 -40 121 -50 22 -11 65 -29 95
-40 29 -12 77 -32 107 -46 29 -13 54 -24 57 -24 2 0 50 -22 107 -48 57 -27
132 -62 168 -78 78 -35 618 -306 713 -357 37 -20 95 -52 130 -71 122 -65 203
-110 285 -158 46 -26 85 -48 87 -48 11 0 484 -279 1005 -593 146 -88 277 -167
292 -176 32 -19 35 -26 11 -36 -20 -8 -591 -204 -788 -270 -614 -207 -1428
-452 -1926 -579 -1019 -259 -2117 -451 -3389 -591 -410 -45 -982 -96 -989 -89
-3 4 1 10 9 15 8 5 67 40 130 78 177 106 312 212 466 366 210 209 366 431 491
700 81 174 152 405 182 590 7 39 17 97 23 130 6 33 10 164 10 290 0 185 -4
255 -21 360 -104 642 -421 1180 -919 1563 -127 97 -249 172 -417 254 -163 79
-161 80 86 48z m-2300 -155 c-334 -204 -614 -484 -810 -810 -68 -113 -144
-264 -180 -360 -13 -33 -32 -82 -42 -110 -27 -71 -87 -316 -99 -405 -32 -226
-36 -547 -9 -705 5 -33 14 -87 20 -120 16 -99 58 -259 90 -347 17 -46 34 -94
39 -108 16 -52 119 -259 180 -360 191 -319 482 -611 800 -806 61 -36 110 -71
110 -76 0 -6 -20 -8 -52 -4 -29 3 -217 20 -418 36 -1014 85 -1695 212 -2307
433 -115 41 -144 55 -153 75 -8 19 -14 22 -22 14 -7 -7 -18 -12 -26 -12 -25 0
-351 149 -522 238 -313 163 -646 375 -950 606 -206 155 -280 217 -280 230 0
16 232 252 430 438 168 158 542 474 666 562 80 57 146 105 224 163 65 48 218
150 287 191 26 16 98 61 158 99 61 38 142 87 180 108 39 21 97 52 130 70 33
19 89 50 125 69 69 39 322 164 435 216 37 17 100 46 139 65 39 18 123 54 186
80 63 26 176 72 250 102 167 68 287 112 600 218 252 85 319 107 620 195 96 29
200 60 230 70 102 34 95 20 -29 -55z"/>
</g>
</svg>
